<svg width="16" height="19" viewBox="0 0 16 19" fill="none" xmlns="http://www.w3.org/2000/svg">
<path d="M8 19C5.87827 19 3.84344 18.1571 2.34315 16.6569C0.842855 15.1566 0 13.1217 0 11C0 8.87827 0.842855 6.84344 2.34315 5.34315C3.84344 3.84285 5.87827 3 8 3C10.1217 3 12.1566 3.84285 13.6569 5.34315C15.1571 6.84344 16 8.87827 16 11C16 13.1217 15.1571 15.1566 13.6569 16.6569C12.1566 18.1571 10.1217 19 8 19ZM8 17.4C9.69739 17.4 11.3253 16.7257 12.5255 15.5255C13.7257 14.3253 14.4 12.6974 14.4 11C14.4 9.30261 13.7257 7.67475 12.5255 6.47452C11.3253 5.27428 9.69739 4.6 8 4.6C6.30261 4.6 4.67475 5.27428 3.47452 6.47452C2.27428 7.67475 1.6 9.30261 1.6 11C1.6 12.6974 2.27428 14.3253 3.47452 15.5255C4.67475 16.7257 6.30261 17.4 8 17.4ZM8.8 10.672L10.832 12.696C10.9826 12.8466 11.0673 13.051 11.0673 13.264C11.0673 13.477 10.9826 13.6814 10.832 13.832C10.6814 13.9826 10.477 14.0673 10.264 14.0673C10.051 14.0673 9.84664 13.9826 9.696 13.832L7.44 11.56C7.28927 11.4123 7.20301 11.211 7.2 11V7.8C7.2 7.58783 7.28429 7.38434 7.43431 7.23431C7.58434 7.08429 7.78783 7 8 7C8.21217 7 8.41566 7.08429 8.56569 7.23431C8.71571 7.38434 8.8 7.58783 8.8 7.8V10.672Z" fill="#202020"/>
</svg>
