<svg width="16" height="19" viewBox="0 0 16 19" fill="none" xmlns="http://www.w3.org/2000/svg">
<g clip-path="url(#clip0_176_7519)">
<path d="M0.888855 8.28391C0.888855 7.73162 1.33356 7.28391 1.88584 7.28391C3.9005 7.28391 8.36791 7.28391 9.58021 7.28391C11.1605 7.28391 11.8338 8.03249 12.7407 9.02218C13.8654 10.2495 15.1111 12.4987 15.1111 13.8024C15.1111 14.2506 15.1111 14.6475 15.1111 14.9753C15.1111 15.5276 14.6634 15.9753 14.1111 15.9753H1.88885C1.33657 15.9753 0.888855 15.5275 0.888855 14.9753V8.28391Z" stroke="#202020" stroke-width="1.5" stroke-linecap="round" stroke-linejoin="round"/>
<ellipse cx="4.44457" cy="15.9753" rx="1.58025" ry="1.58025" fill="white"/>
<ellipse cx="4.44457" cy="15.9753" rx="1.58025" ry="1.58025" stroke="#202020" stroke-width="1.5"/>
<circle cx="11.5556" cy="15.9753" r="1.58025" fill="white"/>
<circle cx="11.5556" cy="15.9753" r="1.58025" stroke="#202020" stroke-width="1.5"/>
<path d="M8.79 7.28395C8.79 7.28395 8.80021 9.66453 9.97518 10.8395C11.1502 12.0145 14.3209 12.0247 14.3209 12.0247" stroke="#202020" stroke-width="1.5"/>
</g>
<defs>
<clipPath id="clip0_176_7519">
<rect width="16" height="18.4444" fill="white"/>
</clipPath>
</defs>
</svg>
